# xmcd CD database file
#
# Track frame offsets:
#	150
#	34284
#	63730
#	70826
#	96251
#	121122
#	146888
#	164772
#	197425
#
# Disc length: 2882 seconds
#
# Revision: 1
# Processed by: cddbd v1.5.1PL2 Copyright (c) Steve Scherf et al.
# Submitted via: CDex 1.51
#
DISCID=880b4009
DTITLE=OneUpOneDown - Preface
DYEAR=2005
DGENRE=Jazz
TTITLE0=Mile by Mile
TTITLE1=Voldemort
TTITLE2=Interlude: Hymn
TTITLE3=My Shadows
TTITLE4=Even Angels Fall
TTITLE5=Voice Of Reason
TTITLE6=Interlude: Return to Purity
TTITLE7=Finger Painting
TTITLE8=Nocturne
EXTD=YEAR: 2005
EXTT0=
EXTT1=
EXTT2=
EXTT3=
EXTT4=
EXTT5=
EXTT6=
EXTT7=
EXTT8=
PLAYORDER=
